<svg width="74" height="82" viewBox="0 0 74 82" fill="none" xmlns="http://www.w3.org/2000/svg">
<path d="M9.8755 58.416C9.8755 57.328 10.1208 56.352 10.6115 55.488C11.1022 54.6133 11.7688 53.9307 12.6115 53.44C13.4648 52.9493 14.4088 52.704 15.4435 52.704C16.6595 52.704 17.7208 52.9973 18.6275 53.584C19.5342 54.1707 20.1955 55.0027 20.6115 56.08H18.8675C18.5582 55.408 18.1102 54.8907 17.5235 54.528C16.9475 54.1653 16.2542 53.984 15.4435 53.984C14.6648 53.984 13.9662 54.1653 13.3475 54.528C12.7288 54.8907 12.2435 55.408 11.8915 56.08C11.5395 56.7413 11.3635 57.52 11.3635 58.416C11.3635 59.3013 11.5395 60.08 11.8915 60.752C12.2435 61.4133 12.7288 61.9253 13.3475 62.288C13.9662 62.6507 14.6648 62.832 15.4435 62.832C16.2542 62.832 16.9475 62.656 17.5235 62.304C18.1102 61.9413 18.5582 61.424 18.8675 60.752H20.6115C20.1955 61.8187 19.5342 62.6453 18.6275 63.232C17.7208 63.808 16.6595 64.096 15.4435 64.096C14.4088 64.096 13.4648 63.856 12.6115 63.376C11.7688 62.8853 11.1022 62.208 10.6115 61.344C10.1208 60.48 9.8755 59.504 9.8755 58.416ZM27.1309 55.072C27.7922 55.072 28.3895 55.216 28.9229 55.504C29.4562 55.7813 29.8722 56.2027 30.1709 56.768C30.4802 57.3333 30.6349 58.0213 30.6349 58.832V64H29.1949V59.04C29.1949 58.1653 28.9762 57.4987 28.5389 57.04C28.1015 56.5707 27.5042 56.336 26.7469 56.336C25.9789 56.336 25.3655 56.576 24.9069 57.056C24.4589 57.536 24.2349 58.2347 24.2349 59.152V64H22.7789V52.16H24.2349V56.48C24.5229 56.032 24.9175 55.6853 25.4189 55.44C25.9309 55.1947 26.5015 55.072 27.1309 55.072ZM32.4693 59.584C32.4693 58.688 32.6506 57.904 33.0133 57.232C33.3759 56.5493 33.8719 56.0213 34.5013 55.648C35.1413 55.2747 35.8506 55.088 36.6293 55.088C37.3973 55.088 38.0639 55.2533 38.6293 55.584C39.1946 55.9147 39.6159 56.3307 39.8933 56.832V55.232H41.3653V64H39.8933V62.368C39.6053 62.88 39.1733 63.3067 38.5973 63.648C38.0319 63.9787 37.3706 64.144 36.6133 64.144C35.8346 64.144 35.1306 63.952 34.5013 63.568C33.8719 63.184 33.3759 62.6453 33.0133 61.952C32.6506 61.2587 32.4693 60.4693 32.4693 59.584ZM39.8933 59.6C39.8933 58.9387 39.7599 58.3627 39.4933 57.872C39.2266 57.3813 38.8639 57.008 38.4053 56.752C37.9573 56.4853 37.4613 56.352 36.9173 56.352C36.3733 56.352 35.8773 56.48 35.4293 56.736C34.9813 56.992 34.6239 57.3653 34.3573 57.856C34.0906 58.3467 33.9573 58.9227 33.9573 59.584C33.9573 60.256 34.0906 60.8427 34.3573 61.344C34.6239 61.8347 34.9813 62.2133 35.4293 62.48C35.8773 62.736 36.3733 62.864 36.9173 62.864C37.4613 62.864 37.9573 62.736 38.4053 62.48C38.8639 62.2133 39.2266 61.8347 39.4933 61.344C39.7599 60.8427 39.8933 60.2613 39.8933 59.6ZM45.2818 52.16V64H43.8258V52.16H45.2818ZM55.7633 59.28C55.7633 59.5573 55.7473 59.8507 55.7153 60.16H48.7073C48.7606 61.024 49.0539 61.7013 49.5873 62.192C50.1313 62.672 50.7873 62.912 51.5553 62.912C52.1846 62.912 52.7073 62.768 53.1233 62.48C53.5499 62.1813 53.8486 61.7867 54.0193 61.296H55.5873C55.3526 62.1387 54.8833 62.8267 54.1793 63.36C53.4753 63.8827 52.6006 64.144 51.5553 64.144C50.7233 64.144 49.9766 63.9573 49.3153 63.584C48.6646 63.2107 48.1526 62.6827 47.7793 62C47.4059 61.3067 47.2193 60.5067 47.2193 59.6C47.2193 58.6933 47.4006 57.8987 47.7633 57.216C48.1259 56.5333 48.6326 56.0107 49.2833 55.648C49.9446 55.2747 50.7019 55.088 51.5553 55.088C52.3873 55.088 53.1233 55.2693 53.7633 55.632C54.4033 55.9947 54.8939 56.496 55.2353 57.136C55.5873 57.7653 55.7633 58.48 55.7633 59.28ZM54.2593 58.976C54.2593 58.4213 54.1366 57.9467 53.8913 57.552C53.6459 57.1467 53.3099 56.8427 52.8833 56.64C52.4673 56.4267 52.0033 56.32 51.4913 56.32C50.7553 56.32 50.1259 56.5547 49.6033 57.024C49.0913 57.4933 48.7979 58.144 48.7233 58.976H54.2593ZM53.0593 52.752L49.6513 54.576V53.488L53.0593 51.488V52.752ZM60.7891 64.144C60.1171 64.144 59.5145 64.032 58.9811 63.808C58.4478 63.5733 58.0265 63.2533 57.7171 62.848C57.4078 62.432 57.2371 61.9573 57.2051 61.424H58.7091C58.7518 61.8613 58.9545 62.2187 59.3171 62.496C59.6905 62.7733 60.1758 62.912 60.7731 62.912C61.3278 62.912 61.7651 62.7893 62.0851 62.544C62.4051 62.2987 62.5651 61.9893 62.5651 61.616C62.5651 61.232 62.3945 60.9493 62.0531 60.768C61.7118 60.576 61.1838 60.3893 60.4691 60.208C59.8185 60.0373 59.2851 59.8667 58.8691 59.696C58.4638 59.5147 58.1118 59.2533 57.8131 58.912C57.5251 58.56 57.3811 58.1013 57.3811 57.536C57.3811 57.088 57.5145 56.6773 57.7811 56.304C58.0478 55.9307 58.4265 55.6373 58.9171 55.424C59.4078 55.2 59.9678 55.088 60.5971 55.088C61.5678 55.088 62.3518 55.3333 62.9491 55.824C63.5465 56.3147 63.8665 56.9867 63.9091 57.84H62.4531C62.4211 57.3813 62.2345 57.0133 61.8931 56.736C61.5625 56.4587 61.1145 56.32 60.5491 56.32C60.0265 56.32 59.6105 56.432 59.3011 56.656C58.9918 56.88 58.8371 57.1733 58.8371 57.536C58.8371 57.824 58.9278 58.064 59.1091 58.256C59.3011 58.4373 59.5358 58.5867 59.8131 58.704C60.1011 58.8107 60.4958 58.9333 60.9971 59.072C61.6265 59.2427 62.1385 59.4133 62.5331 59.584C62.9278 59.744 63.2638 59.9893 63.5411 60.32C63.8291 60.6507 63.9785 61.0827 63.9891 61.616C63.9891 62.096 63.8558 62.528 63.5891 62.912C63.3225 63.296 62.9438 63.6 62.4531 63.824C61.9731 64.0373 61.4185 64.144 60.7891 64.144Z" fill="#717171"/>
<path d="M52.6889 14.1654V4.08895H54.1111V17.0098V17.3042L54.3188 17.5133L57.6667 20.8598L56.6612 21.8667L55.3243 20.5298L54.1111 19.3138V21.0319V21.8667C54.1111 22.7769 53.7698 23.6061 53.2066 24.2361L52.7813 24.7097L53.2052 25.1848C53.7243 25.7636 54.0542 26.5117 54.104 27.3352L54.1111 27.5656V28.9778C54.1111 29.8881 53.7698 30.7172 53.2066 31.3473L52.7813 31.8209L53.2052 32.2959C53.7243 32.8747 54.0542 33.6228 54.104 34.4463L54.1111 34.6767V36.089C54.1111 37.9791 52.6363 39.525 50.7746 39.6374L50.5456 39.6445H22.1111C20.221 39.6445 18.675 38.1697 18.5627 36.308L18.5556 36.0776V34.6667C18.5556 33.7551 18.8969 32.9259 19.4601 32.2959L19.8853 31.8223L19.4601 31.3473C18.9424 30.7684 18.6124 30.0203 18.5627 29.1969L18.5556 28.9665V27.5556C18.5556 26.644 18.8969 25.8148 19.4601 25.1848L19.8853 24.7112L19.4601 24.2361C18.9566 23.6729 18.6295 22.949 18.5669 22.1497L18.5556 21.8525V21.0319V19.3153L17.341 20.5298L16.0055 21.8667L15 20.8612L33.8188 2.04095C35.1486 0.711168 37.272 0.655702 38.6672 1.87312L38.8549 2.04948L51.4743 14.6689L52.6889 15.882V14.1654ZM29.9333 33.2431V32.532H29.2222L22.1111 32.5334C21.016 32.5334 20.1157 33.3569 19.992 34.4178L19.9892 34.4392L19.9877 34.4591L19.9792 34.6255L19.9778 34.6454V34.6667V36.089C19.9778 37.1826 20.8012 38.0843 21.8636 38.2081L21.8836 38.2095L21.9035 38.2109L22.0699 38.2209L22.0898 38.2223H22.1111H29.2222H29.9333V37.5112V33.2431ZM41.3111 24.7112V24.0001H40.6H32.0667H31.3556V24.7112V37.5112V38.2223H32.0667H40.6H41.3111V37.5112V24.7112ZM50.5968 32.5334H50.5755H50.5556L43.4444 32.532H42.7333V33.2431V37.5112V38.2223H43.4444H50.5556C51.6492 38.2223 52.5509 37.3974 52.6747 36.3364L52.6761 36.3165L52.6775 36.2952L52.6875 36.1288L52.6889 36.1089V36.089V34.6667C52.6889 33.5716 51.8654 32.6699 50.803 32.5476L50.7831 32.5448L50.7618 32.5433L50.5968 32.5334ZM50.5968 25.4223H50.5755H50.5556L43.4444 25.4209H42.7333V26.132V30.3986V31.1098H43.4444L50.5556 31.1112C51.6492 31.1112 52.5509 30.2863 52.6747 29.2253L52.6761 29.2054L52.6775 29.1841L52.6875 29.0177L52.6889 28.9977V28.9778V27.5556C52.6889 26.4605 51.8654 25.5588 50.803 25.4365L50.7831 25.4337L50.7618 25.4322L50.5968 25.4223ZM29.9333 26.132V25.4209H29.2222L22.1111 25.4223C21.016 25.4223 20.1157 26.2457 19.992 27.3067L19.9892 27.3281L19.9877 27.348L19.9792 27.5144L19.9778 27.5343V27.5556V28.9778C19.9778 30.0715 20.8012 30.9732 21.8636 31.0969L21.8836 31.0984L21.9035 31.0998L22.0699 31.1098L22.0898 31.1112H22.1111L29.2222 31.1098H29.9333V30.3986V26.132ZM19.992 20.1956L19.9892 20.2169L19.9877 20.2369L19.9792 20.4033L19.9778 20.4232V20.4445V21.8667C19.9778 22.9604 20.8012 23.8621 21.8636 23.9858L21.8836 23.9873L21.9035 23.9887L22.0699 23.9986L22.0898 24.0001H22.1111L29.6034 23.9986H30.013L30.2178 23.6431C30.562 23.0514 31.1792 22.6404 31.8946 22.5835L32.0795 22.5778H40.6C41.3879 22.5778 42.0777 23.0045 42.4475 23.6445L42.6537 23.9986H43.0633L50.5556 24.0001C51.6492 24.0001 52.5509 23.1752 52.6747 22.1142L52.6761 22.0943L52.6775 22.0729L52.6875 21.9065L52.6889 21.8866V21.8667V20.4445C52.6889 19.2655 51.7332 18.3112 50.5556 18.3112H22.1111C21.016 18.3112 20.1157 19.1346 19.992 20.1956ZM46.2021 11.4063L45.9945 11.1986H45.7001H26.9666H26.6722L26.4631 11.4063L22.1964 15.6729L20.9833 16.8875H22.6999H49.9668H51.6834L50.4688 15.6729L46.2021 11.4063ZM35.0249 2.8701L35.0078 2.88432L34.9908 2.89855L34.8571 3.01659L34.84 3.03081L34.8244 3.04646L29.3076 8.56184L28.093 9.77641H29.811H42.8556H44.5723L43.3577 8.56184L37.8409 3.04646C37.0715 2.27703 35.8626 2.21872 35.0249 2.8701Z" fill="#717171"/>
<path d="M52.6889 14.1654V4.08895H54.1111V17.0098V17.3042L54.3188 17.5133L57.6667 20.8598L56.6612 21.8667L55.3243 20.5298L54.1111 19.3138V21.0319V21.8667C54.1111 22.7769 53.7698 23.6061 53.2066 24.2361L52.7813 24.7097L53.2052 25.1848C53.7243 25.7636 54.0542 26.5117 54.104 27.3352L54.1111 27.5656V28.9778C54.1111 29.8881 53.7698 30.7172 53.2066 31.3473L52.7813 31.8209L53.2052 32.2959C53.7243 32.8747 54.0542 33.6228 54.104 34.4463L54.1111 34.6767V36.0889C54.1111 37.9791 52.6363 39.525 50.7746 39.6374L50.5456 39.6445H22.1111C20.221 39.6445 18.675 38.1697 18.5627 36.308L18.5556 36.0776V34.6667C18.5556 33.7551 18.8969 32.9259 19.4601 32.2959L19.8853 31.8223L19.4601 31.3473C18.9424 30.7684 18.6124 30.0203 18.5627 29.1969L18.5556 28.9665V27.5556C18.5556 26.644 18.8969 25.8148 19.4601 25.1848L19.8853 24.7112L19.4601 24.2361C18.9566 23.6729 18.6295 22.949 18.5669 22.1497L18.5556 21.8525V21.0319V19.3153L17.341 20.5298L16.0055 21.8667L15 20.8612L33.8188 2.04095C35.1486 0.711168 37.272 0.655702 38.6672 1.87312L38.8549 2.04948L51.4743 14.6689L52.6889 15.882V14.1654ZM29.9333 33.2431V32.532H29.2222L22.1111 32.5334C21.016 32.5334 20.1157 33.3569 19.992 34.4178L19.9892 34.4392L19.9877 34.4591L19.9792 34.6255L19.9778 34.6454V34.6667V36.0889C19.9778 37.1826 20.8012 38.0843 21.8636 38.2081L21.8836 38.2095L21.9035 38.2109L22.0699 38.2209L22.0898 38.2223H22.1111H29.2222H29.9333V37.5112V33.2431ZM41.3111 24.7112V24.0001H40.6H32.0667H31.3556V24.7112V37.5112V38.2223H32.0667H40.6H41.3111V37.5112V24.7112ZM50.5968 32.5334H50.5755H50.5556L43.4444 32.532H42.7333V33.2431V37.5112V38.2223H43.4444H50.5556C51.6492 38.2223 52.5509 37.3974 52.6747 36.3364L52.6761 36.3165L52.6775 36.2952L52.6875 36.1288L52.6889 36.1089V36.0889V34.6667C52.6889 33.5716 51.8654 32.6699 50.803 32.5476L50.7831 32.5448L50.7618 32.5433L50.5968 32.5334ZM50.5968 25.4223H50.5755H50.5556L43.4444 25.4209H42.7333V26.132V30.3986V31.1097H43.4444L50.5556 31.1112C51.6492 31.1112 52.5509 30.2863 52.6747 29.2253L52.6761 29.2054L52.6775 29.1841L52.6875 29.0177L52.6889 28.9977V28.9778V27.5556C52.6889 26.4605 51.8654 25.5588 50.803 25.4365L50.7831 25.4337L50.7618 25.4322L50.5968 25.4223ZM29.9333 26.132V25.4209H29.2222L22.1111 25.4223C21.016 25.4223 20.1157 26.2457 19.992 27.3067L19.9892 27.3281L19.9877 27.348L19.9792 27.5144L19.9778 27.5343V27.5556V28.9778C19.9778 30.0715 20.8012 30.9732 21.8636 31.0969L21.8836 31.0984L21.9035 31.0998L22.0699 31.1097L22.0898 31.1112H22.1111L29.2222 31.1097H29.9333V30.3986V26.132ZM19.992 20.1956L19.9892 20.2169L19.9877 20.2369L19.9792 20.4033L19.9778 20.4232V20.4445V21.8667C19.9778 22.9604 20.8012 23.8621 21.8636 23.9858L21.8836 23.9873L21.9035 23.9887L22.0699 23.9986L22.0898 24.0001H22.1111L29.6034 23.9986H30.013L30.2178 23.6431C30.562 23.0514 31.1792 22.6404 31.8946 22.5835L32.0795 22.5778H40.6C41.3879 22.5778 42.0777 23.0045 42.4475 23.6445L42.6537 23.9986H43.0633L50.5556 24.0001C51.6492 24.0001 52.5509 23.1752 52.6747 22.1142L52.6761 22.0943L52.6775 22.0729L52.6875 21.9065L52.6889 21.8866V21.8667V20.4445C52.6889 19.2655 51.7332 18.3112 50.5556 18.3112H22.1111C21.016 18.3112 20.1157 19.1346 19.992 20.1956ZM46.2021 11.4063L45.9945 11.1986H45.7001H26.9666H26.6722L26.4631 11.4063L22.1964 15.6729L20.9833 16.8875H22.6999H49.9668H51.6834L50.4688 15.6729L46.2021 11.4063ZM35.0249 2.8701L35.0078 2.88432L34.9908 2.89855L34.8571 3.01659L34.84 3.03081L34.8244 3.04646L29.3076 8.56184L28.093 9.77641H29.811H42.8556H44.5723L43.3577 8.56184L37.8409 3.04646C37.0715 2.27703 35.8626 2.21872 35.0249 2.8701Z" stroke="#717171" stroke-width="1.42222"/>
</svg>
