<svg width="75" height="94" viewBox="0 0 75 94" fill="none" xmlns="http://www.w3.org/2000/svg">
<path d="M6.88756 65.3389V66.5229H2.03956V70.2829H5.97556V71.4669H2.03956V76.4909H0.583563V65.3389H6.88756ZM8.10206 72.0749C8.10206 71.1789 8.2834 70.3949 8.64606 69.7229C9.00873 69.0402 9.50473 68.5122 10.1341 68.1389C10.7741 67.7656 11.4834 67.5789 12.2621 67.5789C13.0301 67.5789 13.6967 67.7442 14.2621 68.0749C14.8274 68.4056 15.2487 68.8216 15.5261 69.3229V67.7229H16.9981V76.4909H15.5261V74.8589C15.2381 75.3709 14.8061 75.7976 14.2301 76.1389C13.6647 76.4696 13.0034 76.6349 12.2461 76.6349C11.4674 76.6349 10.7634 76.4429 10.1341 76.0589C9.50473 75.6749 9.00873 75.1362 8.64606 74.4429C8.2834 73.7496 8.10206 72.9602 8.10206 72.0749ZM15.5261 72.0909C15.5261 71.4296 15.3927 70.8536 15.1261 70.3629C14.8594 69.8722 14.4967 69.4989 14.0381 69.2429C13.5901 68.9762 13.0941 68.8429 12.5501 68.8429C12.0061 68.8429 11.5101 68.9709 11.0621 69.2269C10.6141 69.4829 10.2567 69.8562 9.99006 70.3469C9.7234 70.8376 9.59006 71.4136 9.59006 72.0749C9.59006 72.7469 9.7234 73.3336 9.99006 73.8349C10.2567 74.3256 10.6141 74.7042 11.0621 74.9709C11.5101 75.2269 12.0061 75.3549 12.5501 75.3549C13.0941 75.3549 13.5901 75.2269 14.0381 74.9709C14.4967 74.7042 14.8594 74.3256 15.1261 73.8349C15.3927 73.3336 15.5261 72.7522 15.5261 72.0909ZM20.5466 75.2909H24.8506V76.4909H18.8826V75.2909L23.1386 68.9069H18.9146V67.7229H24.8186V68.9069L20.5466 75.2909ZM34.7398 71.7709C34.7398 72.0482 34.7238 72.3416 34.6918 72.6509H27.6838C27.7371 73.5149 28.0305 74.1922 28.5638 74.6829C29.1078 75.1629 29.7638 75.4029 30.5318 75.4029C31.1611 75.4029 31.6838 75.2589 32.0998 74.9709C32.5265 74.6722 32.8251 74.2776 32.9958 73.7869H34.5638C34.3291 74.6296 33.8598 75.3176 33.1558 75.8509C32.4518 76.3736 31.5771 76.6349 30.5318 76.6349C29.6998 76.6349 28.9531 76.4482 28.2918 76.0749C27.6411 75.7016 27.1291 75.1736 26.7558 74.4909C26.3825 73.7976 26.1958 72.9976 26.1958 72.0909C26.1958 71.1842 26.3771 70.3896 26.7398 69.7069C27.1025 69.0242 27.6091 68.5016 28.2598 68.1389C28.9211 67.7656 29.6785 67.5789 30.5318 67.5789C31.3638 67.5789 32.0998 67.7602 32.7398 68.1229C33.3798 68.4856 33.8705 68.9869 34.2118 69.6269C34.5638 70.2562 34.7398 70.9709 34.7398 71.7709ZM33.2358 71.4669C33.2358 70.9122 33.1131 70.4376 32.8678 70.0429C32.6225 69.6376 32.2865 69.3336 31.8598 69.1309C31.4438 68.9176 30.9798 68.8109 30.4678 68.8109C29.7318 68.8109 29.1025 69.0456 28.5798 69.5149C28.0678 69.9842 27.7745 70.6349 27.6998 71.4669H33.2358ZM40.9337 67.5629C42.0004 67.5629 42.8644 67.8882 43.5257 68.5389C44.187 69.1789 44.5177 70.1069 44.5177 71.3229V76.4909H43.0777V71.5309C43.0777 70.6562 42.859 69.9896 42.4217 69.5309C41.9844 69.0616 41.387 68.8269 40.6297 68.8269C39.8617 68.8269 39.2484 69.0669 38.7897 69.5469C38.3417 70.0269 38.1177 70.7256 38.1177 71.6429V76.4909H36.6617V67.7229H38.1177V68.9709C38.4057 68.5229 38.795 68.1762 39.2857 67.9309C39.787 67.6856 40.3364 67.5629 40.9337 67.5629ZM46.3521 72.0749C46.3521 71.1789 46.5334 70.3949 46.8961 69.7229C47.2587 69.0402 47.7547 68.5122 48.3841 68.1389C49.0241 67.7656 49.7387 67.5789 50.5281 67.5789C51.2107 67.5789 51.8454 67.7389 52.4321 68.0589C53.0187 68.3682 53.4667 68.7789 53.7761 69.2909V64.6509H55.2481V76.4909H53.7761V74.8429C53.4881 75.3656 53.0614 75.7976 52.4961 76.1389C51.9307 76.4696 51.2694 76.6349 50.5121 76.6349C49.7334 76.6349 49.0241 76.4429 48.3841 76.0589C47.7547 75.6749 47.2587 75.1362 46.8961 74.4429C46.5334 73.7496 46.3521 72.9602 46.3521 72.0749ZM53.7761 72.0909C53.7761 71.4296 53.6427 70.8536 53.3761 70.3629C53.1094 69.8722 52.7467 69.4989 52.2881 69.2429C51.8401 68.9762 51.3441 68.8429 50.8001 68.8429C50.2561 68.8429 49.7601 68.9709 49.3121 69.2269C48.8641 69.4829 48.5067 69.8562 48.2401 70.3469C47.9734 70.8376 47.8401 71.4136 47.8401 72.0749C47.8401 72.7469 47.9734 73.3336 48.2401 73.8349C48.5067 74.3256 48.8641 74.7042 49.3121 74.9709C49.7601 75.2269 50.2561 75.3549 50.8001 75.3549C51.3441 75.3549 51.8401 75.2269 52.2881 74.9709C52.7467 74.7042 53.1094 74.3256 53.3761 73.8349C53.6427 73.3336 53.7761 72.7522 53.7761 72.0909ZM57.1646 72.0749C57.1646 71.1789 57.3459 70.3949 57.7086 69.7229C58.0712 69.0402 58.5672 68.5122 59.1966 68.1389C59.8366 67.7656 60.5459 67.5789 61.3246 67.5789C62.0926 67.5789 62.7592 67.7442 63.3246 68.0749C63.8899 68.4056 64.3112 68.8216 64.5886 69.3229V67.7229H66.0606V76.4909H64.5886V74.8589C64.3006 75.3709 63.8686 75.7976 63.2926 76.1389C62.7272 76.4696 62.0659 76.6349 61.3086 76.6349C60.5299 76.6349 59.8259 76.4429 59.1966 76.0589C58.5672 75.6749 58.0712 75.1362 57.7086 74.4429C57.3459 73.7496 57.1646 72.9602 57.1646 72.0749ZM64.5886 72.0909C64.5886 71.4296 64.4552 70.8536 64.1886 70.3629C63.9219 69.8722 63.5592 69.4989 63.1006 69.2429C62.6526 68.9762 62.1566 68.8429 61.6126 68.8429C61.0686 68.8429 60.5726 68.9709 60.1246 69.2269C59.6766 69.4829 59.3192 69.8562 59.0526 70.3469C58.7859 70.8376 58.6526 71.4136 58.6526 72.0749C58.6526 72.7469 58.7859 73.3336 59.0526 73.8349C59.3192 74.3256 59.6766 74.7042 60.1246 74.9709C60.5726 75.2269 61.0686 75.3549 61.6126 75.3549C62.1566 75.3549 62.6526 75.2269 63.1006 74.9709C63.5592 74.7042 63.9219 74.3256 64.1886 73.8349C64.4552 73.3336 64.5886 72.7522 64.5886 72.0909ZM71.6251 76.6349C70.9531 76.6349 70.3504 76.5229 69.8171 76.2989C69.2837 76.0642 68.8624 75.7442 68.5531 75.3389C68.2437 74.9229 68.0731 74.4482 68.0411 73.9149H69.5451C69.5877 74.3522 69.7904 74.7096 70.1531 74.9869C70.5264 75.2642 71.0117 75.4029 71.6091 75.4029C72.1637 75.4029 72.6011 75.2802 72.9211 75.0349C73.2411 74.7896 73.4011 74.4802 73.4011 74.1069C73.4011 73.7229 73.2304 73.4402 72.8891 73.2589C72.5477 73.0669 72.0197 72.8802 71.3051 72.6989C70.6544 72.5282 70.1211 72.3576 69.7051 72.1869C69.2997 72.0056 68.9477 71.7442 68.6491 71.4029C68.3611 71.0509 68.2171 70.5922 68.2171 70.0269C68.2171 69.5789 68.3504 69.1682 68.6171 68.7949C68.8837 68.4216 69.2624 68.1282 69.7531 67.9149C70.2437 67.6909 70.8037 67.5789 71.4331 67.5789C72.4037 67.5789 73.1877 67.8242 73.7851 68.3149C74.3824 68.8056 74.7024 69.4776 74.7451 70.3309H73.2891C73.2571 69.8722 73.0704 69.5042 72.7291 69.2269C72.3984 68.9496 71.9504 68.8109 71.3851 68.8109C70.8624 68.8109 70.4464 68.9229 70.1371 69.1469C69.8277 69.3709 69.6731 69.6642 69.6731 70.0269C69.6731 70.3149 69.7637 70.5549 69.9451 70.7469C70.1371 70.9282 70.3717 71.0776 70.6491 71.1949C70.9371 71.3016 71.3317 71.4242 71.8331 71.5629C72.4624 71.7336 72.9744 71.9042 73.3691 72.0749C73.7637 72.2349 74.0997 72.4802 74.3771 72.8109C74.6651 73.1416 74.8144 73.5736 74.8251 74.1069C74.8251 74.5869 74.6917 75.0189 74.4251 75.4029C74.1584 75.7869 73.7797 76.0909 73.2891 76.3149C72.8091 76.5282 72.2544 76.6349 71.6251 76.6349Z" fill="#717171"/>
<path d="M27.2444 12.0889C30.6777 12.0889 33.4809 14.7926 33.6373 18.1874L33.6444 18.4889V25.1705L41.3316 19.4788C41.798 19.1332 42.4224 19.1104 42.9088 19.402L43.0667 19.5115L50.7111 25.6285V20.6223H53.5556V27.904L57.2889 30.8893L55.5111 33.1108L53.5556 31.5449L53.5541 37.6889H56.4C57.1296 37.6889 57.7312 38.2379 57.8123 38.9447L57.8222 39.1112V50.4889C57.8222 51.2185 57.2732 51.8201 56.5664 51.9012L56.4 51.9112H18V49.0667H28.7307L31.2196 46.2223H18V43.3778H33.6444V43.4518L36.1973 40.5334H18V37.6889H20.8444V18.4889C20.8444 14.9547 23.7102 12.0889 27.2444 12.0889ZM44.7307 40.5334H39.9776L32.5109 49.0667H37.264L44.7307 40.5334ZM54.9778 42.8943L49.5776 49.0667H54.9778V42.8943ZM53.264 40.5334H48.5109L41.0443 49.0667H45.7973L53.264 40.5334ZM50.7111 29.2694L42.1436 22.4157L33.6444 28.7104V37.6889H37.9097L37.9111 32C37.9111 31.2704 38.4601 30.6688 39.1669 30.5878L39.3333 30.5778H45.0222C45.7518 30.5778 46.3534 31.1268 46.4345 31.8336L46.4444 32L46.443 37.6889H50.7097L50.7111 29.2694ZM27.2444 14.9334C25.36 14.9334 23.8169 16.4011 23.696 18.2557L23.6889 18.4889V37.6889H30.8V18.4889C30.8 16.5248 29.2085 14.9334 27.2444 14.9334ZM43.6 33.4223H40.7556V37.6889H43.6V33.4223Z" fill="#717171"/>
</svg>
