<svg width="74" height="82" viewBox="0 0 74 82" fill="none" xmlns="http://www.w3.org/2000/svg">
<path d="M21.1443 53.3389V64.4909H19.6883V59.4349H14.0083V64.4909H12.5523V53.3389H14.0083V58.2349H19.6883V53.3389H21.1443ZM27.4544 64.6349C26.6331 64.6349 25.8864 64.4482 25.2144 64.0749C24.5531 63.7016 24.0304 63.1736 23.6464 62.4909C23.2731 61.7976 23.0864 60.9976 23.0864 60.0909C23.0864 59.1949 23.2784 58.4056 23.6624 57.7229C24.0571 57.0296 24.5904 56.5016 25.2624 56.1389C25.9344 55.7656 26.6864 55.5789 27.5184 55.5789C28.3504 55.5789 29.1024 55.7656 29.7744 56.1389C30.4464 56.5016 30.9744 57.0242 31.3584 57.7069C31.7531 58.3896 31.9504 59.1842 31.9504 60.0909C31.9504 60.9976 31.7478 61.7976 31.3424 62.4909C30.9478 63.1736 30.4091 63.7016 29.7264 64.0749C29.0438 64.4482 28.2864 64.6349 27.4544 64.6349ZM27.4544 63.3549C27.9771 63.3549 28.4678 63.2322 28.9264 62.9869C29.3851 62.7416 29.7531 62.3736 30.0304 61.8829C30.3184 61.3922 30.4624 60.7949 30.4624 60.0909C30.4624 59.3869 30.3238 58.7896 30.0464 58.2989C29.7691 57.8082 29.4064 57.4456 28.9584 57.2109C28.5104 56.9656 28.0251 56.8429 27.5024 56.8429C26.9691 56.8429 26.4784 56.9656 26.0304 57.2109C25.5931 57.4456 25.2411 57.8082 24.9744 58.2989C24.7078 58.7896 24.5744 59.3869 24.5744 60.0909C24.5744 60.8056 24.7024 61.4082 24.9584 61.8989C25.2251 62.3896 25.5771 62.7576 26.0144 63.0029C26.4518 63.2376 26.9318 63.3549 27.4544 63.3549ZM35.6408 56.9229V62.0909C35.6408 62.5176 35.7315 62.8216 35.9128 63.0029C36.0941 63.1736 36.4088 63.2589 36.8568 63.2589H37.9288V64.4909H36.6168C35.8061 64.4909 35.1981 64.3042 34.7928 63.9309C34.3875 63.5576 34.1848 62.9442 34.1848 62.0909V56.9229H33.0488V55.7229H34.1848V53.5149H35.6408V55.7229H37.9288V56.9229H35.6408ZM47.6929 59.7709C47.6929 60.0482 47.6769 60.3416 47.6449 60.6509H40.6369C40.6903 61.5149 40.9836 62.1922 41.5169 62.6829C42.0609 63.1629 42.7169 63.4029 43.4849 63.4029C44.1143 63.4029 44.6369 63.2589 45.0529 62.9709C45.4796 62.6722 45.7783 62.2776 45.9489 61.7869H47.5169C47.2823 62.6296 46.8129 63.3176 46.1089 63.8509C45.4049 64.3736 44.5303 64.6349 43.4849 64.6349C42.6529 64.6349 41.9063 64.4482 41.2449 64.0749C40.5943 63.7016 40.0823 63.1736 39.7089 62.4909C39.3356 61.7976 39.1489 60.9976 39.1489 60.0909C39.1489 59.1842 39.3303 58.3896 39.6929 57.7069C40.0556 57.0242 40.5623 56.5016 41.2129 56.1389C41.8743 55.7656 42.6316 55.5789 43.4849 55.5789C44.3169 55.5789 45.0529 55.7602 45.6929 56.1229C46.3329 56.4856 46.8236 56.9869 47.1649 57.6269C47.5169 58.2562 47.6929 58.9709 47.6929 59.7709ZM46.1889 59.4669C46.1889 58.9122 46.0663 58.4376 45.8209 58.0429C45.5756 57.6376 45.2396 57.3336 44.8129 57.1309C44.3969 56.9176 43.9329 56.8109 43.4209 56.8109C42.6849 56.8109 42.0556 57.0456 41.5329 57.5149C41.0209 57.9842 40.7276 58.6349 40.6529 59.4669H46.1889ZM44.9889 53.2429L41.5809 55.0669V53.9789L44.9889 51.9789V53.2429ZM50.3668 54.2989C50.0895 54.2989 49.8548 54.2029 49.6628 54.0109C49.4708 53.8189 49.3748 53.5842 49.3748 53.3069C49.3748 53.0296 49.4708 52.7949 49.6628 52.6029C49.8548 52.4109 50.0895 52.3149 50.3668 52.3149C50.6335 52.3149 50.8575 52.4109 51.0388 52.6029C51.2308 52.7949 51.3268 53.0296 51.3268 53.3069C51.3268 53.5842 51.2308 53.8189 51.0388 54.0109C50.8575 54.2029 50.6335 54.2989 50.3668 54.2989ZM51.0708 55.7229V64.4909H49.6148V55.7229H51.0708ZM56.6563 64.6349C55.9843 64.6349 55.3816 64.5229 54.8483 64.2989C54.315 64.0642 53.8936 63.7442 53.5843 63.3389C53.275 62.9229 53.1043 62.4482 53.0723 61.9149H54.5763C54.619 62.3522 54.8216 62.7096 55.1843 62.9869C55.5576 63.2642 56.043 63.4029 56.6403 63.4029C57.195 63.4029 57.6323 63.2802 57.9523 63.0349C58.2723 62.7896 58.4323 62.4802 58.4323 62.1069C58.4323 61.7229 58.2616 61.4402 57.9203 61.2589C57.579 61.0669 57.051 60.8802 56.3363 60.6989C55.6856 60.5282 55.1523 60.3576 54.7363 60.1869C54.331 60.0056 53.979 59.7442 53.6803 59.4029C53.3923 59.0509 53.2483 58.5922 53.2483 58.0269C53.2483 57.5789 53.3816 57.1682 53.6483 56.7949C53.915 56.4216 54.2936 56.1282 54.7843 55.9149C55.275 55.6909 55.835 55.5789 56.4643 55.5789C57.435 55.5789 58.219 55.8242 58.8163 56.3149C59.4136 56.8056 59.7336 57.4776 59.7763 58.3309H58.3203C58.2883 57.8722 58.1016 57.5042 57.7603 57.2269C57.4296 56.9496 56.9816 56.8109 56.4163 56.8109C55.8936 56.8109 55.4776 56.9229 55.1683 57.1469C54.859 57.3709 54.7043 57.6642 54.7043 58.0269C54.7043 58.3149 54.795 58.5549 54.9763 58.7469C55.1683 58.9282 55.403 59.0776 55.6803 59.1949C55.9683 59.3016 56.363 59.4242 56.8643 59.5629C57.4936 59.7336 58.0056 59.9042 58.4003 60.0749C58.795 60.2349 59.131 60.4802 59.4083 60.8109C59.6963 61.1416 59.8456 61.5736 59.8563 62.1069C59.8563 62.5869 59.723 63.0189 59.4563 63.4029C59.1896 63.7869 58.811 64.0909 58.3203 64.3149C57.8403 64.5282 57.2856 64.6349 56.6563 64.6349Z" fill="#717171"/>
<path d="M54.1429 7.63376H42.7143V3.34805C42.7129 2.59091 42.4114 1.86376 41.8757 1.32805C41.3414 0.793763 40.6143 0.492335 39.8571 0.490906H19.8571C19.1 0.492335 18.3729 0.792335 17.8371 1.32805C17.3014 1.86376 17.0014 2.59091 17 3.34805V37.6338C17.0014 38.3909 17.3029 39.118 17.8371 39.6523C18.3729 40.188 19.1 40.4895 19.8571 40.4909H54.1429C54.9 40.4895 55.6257 40.188 56.1614 39.6523C56.6971 39.1166 56.9986 38.3909 57 37.6338V10.4909C56.9986 9.73376 56.6971 9.00662 56.1614 8.47091C55.6271 7.93662 54.9 7.63519 54.1429 7.63376ZM32.7143 37.6338H27V30.4909H32.7143V37.6338ZM39.8571 37.6338H35.5714V30.4909C35.57 29.7338 35.2686 29.0066 34.7329 28.4723C34.1986 27.9366 33.4714 27.6352 32.7143 27.6338H27C26.2429 27.6352 25.5157 27.9366 24.98 28.4723C24.4457 29.0066 24.1443 29.7338 24.1429 30.4909V37.6338H19.8571L19.8557 3.34805H39.8571V37.6338ZM54.1429 37.6338H42.7143V10.4909H54.1429V37.6338ZM49.8571 20.4909C49.8571 20.7738 49.7729 21.0495 49.6157 21.2852C49.46 21.5195 49.2357 21.7023 48.9757 21.8109C48.7143 21.9195 48.4271 21.9466 48.15 21.8923C47.8729 21.8366 47.6186 21.7009 47.4186 21.5009C47.2186 21.3009 47.0829 21.0466 47.0271 20.7695C46.9729 20.4923 47 20.2052 47.1086 19.9438C47.2171 19.6838 47.4 19.4595 47.6343 19.3038C47.87 19.1466 48.1457 19.0623 48.4286 19.0623C48.8071 19.0623 49.1714 19.2123 49.4386 19.4809C49.7071 19.748 49.8571 20.1123 49.8571 20.4909ZM47 14.7766C47 14.4938 47.0843 14.2181 47.2414 13.9823C47.3971 13.748 47.6214 13.5652 47.8814 13.4566C48.1429 13.348 48.43 13.3209 48.7071 13.3752C48.9843 13.4309 49.2386 13.5666 49.4386 13.7666C49.6386 13.9666 49.7743 14.2209 49.83 14.498C49.8843 14.7752 49.8571 15.0623 49.7486 15.3238C49.64 15.5838 49.4571 15.808 49.2229 15.9638C48.9871 16.1209 48.7114 16.2052 48.4286 16.2052C48.05 16.2052 47.6857 16.0552 47.4186 15.7866C47.15 15.5195 47 15.1552 47 14.7766ZM35.5714 20.4909C35.5714 20.7738 35.4871 21.0495 35.33 21.2852C35.1743 21.5195 34.95 21.7023 34.69 21.8109C34.4286 21.9195 34.1414 21.9466 33.8643 21.8923C33.5871 21.8366 33.3329 21.7009 33.1329 21.5009C32.9329 21.3009 32.7971 21.0466 32.7414 20.7695C32.6871 20.4923 32.7143 20.2052 32.8229 19.9438C32.9314 19.6838 33.1143 19.4595 33.3486 19.3038C33.5843 19.1466 33.86 19.0623 34.1429 19.0623C34.5214 19.0623 34.8857 19.2123 35.1529 19.4809C35.4214 19.748 35.5714 20.1123 35.5714 20.4909ZM35.5714 14.7766C35.5714 15.0595 35.4871 15.3352 35.33 15.5709C35.1743 15.8052 34.95 15.988 34.69 16.0966C34.4286 16.2052 34.1414 16.2323 33.8643 16.178C33.5871 16.1223 33.3329 15.9866 33.1329 15.7866C32.9329 15.5866 32.7971 15.3323 32.7414 15.0552C32.6871 14.778 32.7143 14.4909 32.8229 14.2295C32.9314 13.9695 33.1143 13.7452 33.3486 13.5895C33.5843 13.4323 33.86 13.348 34.1429 13.348C34.5214 13.348 34.8857 13.498 35.1529 13.7666C35.4214 14.0338 35.5714 14.398 35.5714 14.7766ZM35.5714 9.06233C35.5714 9.34519 35.4871 9.62091 35.33 9.85662C35.1743 10.0909 34.95 10.2738 34.69 10.3823C34.4286 10.4909 34.1414 10.518 33.8643 10.4638C33.5871 10.408 33.3329 10.2723 33.1329 10.0723C32.9329 9.87233 32.7971 9.61805 32.7414 9.34091C32.6871 9.06376 32.7143 8.77662 32.8229 8.51519C32.9314 8.25519 33.1143 8.03091 33.3486 7.87519C33.5843 7.71805 33.86 7.63376 34.1429 7.63376C34.5214 7.63376 34.8857 7.78376 35.1529 8.05233C35.4214 8.31948 35.5714 8.68376 35.5714 9.06233ZM27 20.4909C27 20.7738 26.9157 21.0495 26.7586 21.2852C26.6029 21.5195 26.3786 21.7023 26.1186 21.8109C25.8571 21.9195 25.57 21.9466 25.2929 21.8923C25.0157 21.8366 24.7614 21.7009 24.5614 21.5009C24.3614 21.3009 24.2257 21.0466 24.17 20.7695C24.1157 20.4923 24.1429 20.2052 24.2514 19.9438C24.36 19.6838 24.5429 19.4595 24.7771 19.3038C25.0129 19.1466 25.2886 19.0623 25.5714 19.0623C25.95 19.0623 26.3143 19.2123 26.5814 19.4809C26.85 19.748 27 20.1123 27 20.4909ZM27 14.7766C27 15.0595 26.9157 15.3352 26.7586 15.5709C26.6029 15.8052 26.3786 15.988 26.1186 16.0966C25.8571 16.2052 25.57 16.2323 25.2929 16.178C25.0157 16.1223 24.7614 15.9866 24.5614 15.7866C24.3614 15.5866 24.2257 15.3323 24.17 15.0552C24.1157 14.778 24.1429 14.4909 24.2514 14.2295C24.36 13.9695 24.5429 13.7452 24.7771 13.5895C25.0129 13.4323 25.2886 13.348 25.5714 13.348C25.95 13.348 26.3143 13.498 26.5814 13.7666C26.85 14.0338 27 14.398 27 14.7766ZM27 9.06233C27 9.34519 26.9157 9.62091 26.7586 9.85662C26.6029 10.0909 26.3786 10.2738 26.1186 10.3823C25.8571 10.4909 25.57 10.518 25.2929 10.4638C25.0157 10.408 24.7614 10.2723 24.5614 10.0723C24.3614 9.87233 24.2257 9.61805 24.17 9.34091C24.1157 9.06376 24.1429 8.77662 24.2514 8.51519C24.36 8.25519 24.5429 8.03091 24.7771 7.87519C25.0129 7.71805 25.2886 7.63376 25.5714 7.63376C25.95 7.63376 26.3143 7.78376 26.5814 8.05233C26.85 8.31948 27 8.68376 27 9.06233Z" fill="#717171"/>
</svg>
