<svg width="79" height="92" viewBox="0 0 79 92" fill="none" xmlns="http://www.w3.org/2000/svg">
<path d="M8.74269 67.6029C8.74269 68.5309 8.42269 69.3042 7.78269 69.9229C7.15335 70.5309 6.18802 70.8349 4.88669 70.8349H2.74269V75.4909H1.28669V64.3389H4.88669C6.14535 64.3389 7.10002 64.6429 7.75069 65.2509C8.41202 65.8589 8.74269 66.6429 8.74269 67.6029ZM4.88669 69.6349C5.69735 69.6349 6.29469 69.4589 6.67869 69.1069C7.06269 68.7549 7.25469 68.2536 7.25469 67.6029C7.25469 66.2269 6.46535 65.5389 4.88669 65.5389H2.74269V69.6349H4.88669ZM14.3763 75.6349C13.555 75.6349 12.8083 75.4482 12.1363 75.0749C11.475 74.7016 10.9523 74.1736 10.5683 73.4909C10.195 72.7976 10.0083 71.9976 10.0083 71.0909C10.0083 70.1949 10.2003 69.4056 10.5843 68.7229C10.979 68.0296 11.5123 67.5016 12.1843 67.1389C12.8563 66.7656 13.6083 66.5789 14.4403 66.5789C15.2723 66.5789 16.0243 66.7656 16.6963 67.1389C17.3683 67.5016 17.8963 68.0242 18.2803 68.7069C18.675 69.3896 18.8723 70.1842 18.8723 71.0909C18.8723 71.9976 18.6696 72.7976 18.2643 73.4909C17.8696 74.1736 17.331 74.7016 16.6483 75.0749C15.9656 75.4482 15.2083 75.6349 14.3763 75.6349ZM14.3763 74.3549C14.899 74.3549 15.3896 74.2322 15.8483 73.9869C16.307 73.7416 16.675 73.3736 16.9523 72.8829C17.2403 72.3922 17.3843 71.7949 17.3843 71.0909C17.3843 70.3869 17.2456 69.7896 16.9683 69.2989C16.691 68.8082 16.3283 68.4456 15.8803 68.2109C15.4323 67.9656 14.947 67.8429 14.4243 67.8429C13.891 67.8429 13.4003 67.9656 12.9523 68.2109C12.515 68.4456 12.163 68.8082 11.8963 69.2989C11.6296 69.7896 11.4963 70.3869 11.4963 71.0909C11.4963 71.8056 11.6243 72.4082 11.8803 72.8989C12.147 73.3896 12.499 73.7576 12.9363 74.0029C13.3736 74.2376 13.8536 74.3549 14.3763 74.3549ZM28.5627 66.7229V75.4909H27.1067V74.1949C26.8294 74.6429 26.44 74.9949 25.9387 75.2509C25.448 75.4962 24.904 75.6189 24.3067 75.6189C23.624 75.6189 23.0107 75.4802 22.4667 75.2029C21.9227 74.9149 21.4907 74.4882 21.1707 73.9229C20.8614 73.3576 20.7067 72.6696 20.7067 71.8589V66.7229H22.1467V71.6669C22.1467 72.5309 22.3654 73.1976 22.8027 73.6669C23.24 74.1256 23.8374 74.3549 24.5947 74.3549C25.3734 74.3549 25.9867 74.1149 26.4347 73.6349C26.8827 73.1549 27.1067 72.4562 27.1067 71.5389V66.7229H28.5627ZM34.1251 75.6349C33.4531 75.6349 32.8504 75.5229 32.3171 75.2989C31.7837 75.0642 31.3624 74.7442 31.0531 74.3389C30.7437 73.9229 30.5731 73.4482 30.5411 72.9149H32.0451C32.0877 73.3522 32.2904 73.7096 32.6531 73.9869C33.0264 74.2642 33.5117 74.4029 34.1091 74.4029C34.6637 74.4029 35.1011 74.2802 35.4211 74.0349C35.7411 73.7896 35.9011 73.4802 35.9011 73.1069C35.9011 72.7229 35.7304 72.4402 35.3891 72.2589C35.0477 72.0669 34.5197 71.8802 33.8051 71.6989C33.1544 71.5282 32.6211 71.3576 32.2051 71.1869C31.7997 71.0056 31.4477 70.7442 31.1491 70.4029C30.8611 70.0509 30.7171 69.5922 30.7171 69.0269C30.7171 68.5789 30.8504 68.1682 31.1171 67.7949C31.3837 67.4216 31.7624 67.1282 32.2531 66.9149C32.7437 66.6909 33.3037 66.5789 33.9331 66.5789C34.9037 66.5789 35.6877 66.8242 36.2851 67.3149C36.8824 67.8056 37.2024 68.4776 37.2451 69.3309H35.7891C35.7571 68.8722 35.5704 68.5042 35.2291 68.2269C34.8984 67.9496 34.4504 67.8109 33.8851 67.8109C33.3624 67.8109 32.9464 67.9229 32.6371 68.1469C32.3277 68.3709 32.1731 68.6642 32.1731 69.0269C32.1731 69.3149 32.2637 69.5549 32.4451 69.7469C32.6371 69.9282 32.8717 70.0776 33.1491 70.1949C33.4371 70.3016 33.8317 70.4242 34.3331 70.5629C34.9624 70.7336 35.4744 70.9042 35.8691 71.0749C36.2637 71.2349 36.5997 71.4802 36.8771 71.8109C37.1651 72.1416 37.3144 72.5736 37.3251 73.1069C37.3251 73.5869 37.1917 74.0189 36.9251 74.4029C36.6584 74.7869 36.2797 75.0909 35.7891 75.3149C35.3091 75.5282 34.7544 75.6349 34.1251 75.6349ZM38.8364 71.0749C38.8364 70.1789 39.0178 69.3949 39.3804 68.7229C39.7431 68.0402 40.2391 67.5122 40.8684 67.1389C41.5084 66.7656 42.2178 66.5789 42.9964 66.5789C43.7644 66.5789 44.4311 66.7442 44.9964 67.0749C45.5618 67.4056 45.9831 67.8216 46.2604 68.3229V66.7229H47.7324V75.4909H46.2604V73.8589C45.9724 74.3709 45.5404 74.7976 44.9644 75.1389C44.3991 75.4696 43.7378 75.6349 42.9804 75.6349C42.2018 75.6349 41.4978 75.4429 40.8684 75.0589C40.2391 74.6749 39.7431 74.1362 39.3804 73.4429C39.0178 72.7496 38.8364 71.9602 38.8364 71.0749ZM46.2604 71.0909C46.2604 70.4296 46.1271 69.8536 45.8604 69.3629C45.5938 68.8722 45.2311 68.4989 44.7724 68.2429C44.3244 67.9762 43.8284 67.8429 43.2844 67.8429C42.7404 67.8429 42.2444 67.9709 41.7964 68.2269C41.3484 68.4829 40.9911 68.8562 40.7244 69.3469C40.4578 69.8376 40.3244 70.4136 40.3244 71.0749C40.3244 71.7469 40.4578 72.3336 40.7244 72.8349C40.9911 73.3256 41.3484 73.7042 41.7964 73.9709C42.2444 74.2269 42.7404 74.3549 43.2844 74.3549C43.8284 74.3549 44.3244 74.2269 44.7724 73.9709C45.2311 73.7042 45.5938 73.3256 45.8604 72.8349C46.1271 72.3336 46.2604 71.7522 46.2604 71.0909ZM49.6489 71.0749C49.6489 70.1789 49.8303 69.3949 50.1929 68.7229C50.5556 68.0402 51.0516 67.5122 51.6809 67.1389C52.3209 66.7656 53.0356 66.5789 53.8249 66.5789C54.5076 66.5789 55.1423 66.7389 55.7289 67.0589C56.3156 67.3682 56.7636 67.7789 57.0729 68.2909V63.6509H58.5449V75.4909H57.0729V73.8429C56.7849 74.3656 56.3583 74.7976 55.7929 75.1389C55.2276 75.4696 54.5663 75.6349 53.8089 75.6349C53.0303 75.6349 52.3209 75.4429 51.6809 75.0589C51.0516 74.6749 50.5556 74.1362 50.1929 73.4429C49.8303 72.7496 49.6489 71.9602 49.6489 71.0749ZM57.0729 71.0909C57.0729 70.4296 56.9396 69.8536 56.6729 69.3629C56.4063 68.8722 56.0436 68.4989 55.5849 68.2429C55.1369 67.9762 54.6409 67.8429 54.0969 67.8429C53.5529 67.8429 53.0569 67.9709 52.6089 68.2269C52.1609 68.4829 51.8036 68.8562 51.5369 69.3469C51.2703 69.8376 51.1369 70.4136 51.1369 71.0749C51.1369 71.7469 51.2703 72.3336 51.5369 72.8349C51.8036 73.3256 52.1609 73.7042 52.6089 73.9709C53.0569 74.2269 53.5529 74.3549 54.0969 74.3549C54.6409 74.3549 55.1369 74.2269 55.5849 73.9709C56.0436 73.7042 56.4063 73.3256 56.6729 72.8349C56.9396 72.3336 57.0729 71.7522 57.0729 71.0909ZM60.4614 71.0749C60.4614 70.1789 60.6428 69.3949 61.0054 68.7229C61.3681 68.0402 61.8641 67.5122 62.4934 67.1389C63.1334 66.7656 63.8428 66.5789 64.6214 66.5789C65.3894 66.5789 66.0561 66.7442 66.6214 67.0749C67.1868 67.4056 67.6081 67.8216 67.8854 68.3229V66.7229H69.3574V75.4909H67.8854V73.8589C67.5974 74.3709 67.1654 74.7976 66.5894 75.1389C66.0241 75.4696 65.3628 75.6349 64.6054 75.6349C63.8268 75.6349 63.1228 75.4429 62.4934 75.0589C61.8641 74.6749 61.3681 74.1362 61.0054 73.4429C60.6428 72.7496 60.4614 71.9602 60.4614 71.0749ZM67.8854 71.0909C67.8854 70.4296 67.7521 69.8536 67.4854 69.3629C67.2188 68.8722 66.8561 68.4989 66.3974 68.2429C65.9494 67.9762 65.4534 67.8429 64.9094 67.8429C64.3654 67.8429 63.8694 67.9709 63.4214 68.2269C62.9734 68.4829 62.6161 68.8562 62.3494 69.3469C62.0828 69.8376 61.9494 70.4136 61.9494 71.0749C61.9494 71.7469 62.0828 72.3336 62.3494 72.8349C62.6161 73.3256 62.9734 73.7042 63.4214 73.9709C63.8694 74.2269 64.3654 74.3549 64.9094 74.3549C65.4534 74.3549 65.9494 74.2269 66.3974 73.9709C66.8561 73.7042 67.2188 73.3256 67.4854 72.8349C67.7521 72.3336 67.8854 71.7522 67.8854 71.0909ZM74.9219 75.6349C74.2499 75.6349 73.6473 75.5229 73.1139 75.2989C72.5806 75.0642 72.1593 74.7442 71.8499 74.3389C71.5406 73.9229 71.3699 73.4482 71.3379 72.9149H72.8419C72.8846 73.3522 73.0873 73.7096 73.4499 73.9869C73.8233 74.2642 74.3086 74.4029 74.9059 74.4029C75.4606 74.4029 75.8979 74.2802 76.2179 74.0349C76.5379 73.7896 76.6979 73.4802 76.6979 73.1069C76.6979 72.7229 76.5273 72.4402 76.1859 72.2589C75.8446 72.0669 75.3166 71.8802 74.6019 71.6989C73.9513 71.5282 73.4179 71.3576 73.0019 71.1869C72.5966 71.0056 72.2446 70.7442 71.9459 70.4029C71.6579 70.0509 71.5139 69.5922 71.5139 69.0269C71.5139 68.5789 71.6473 68.1682 71.9139 67.7949C72.1806 67.4216 72.5593 67.1282 73.0499 66.9149C73.5406 66.6909 74.1006 66.5789 74.7299 66.5789C75.7006 66.5789 76.4846 66.8242 77.0819 67.3149C77.6793 67.8056 77.9993 68.4776 78.0419 69.3309H76.5859C76.5539 68.8722 76.3673 68.5042 76.0259 68.2269C75.6953 67.9496 75.2473 67.8109 74.6819 67.8109C74.1593 67.8109 73.7433 67.9229 73.4339 68.1469C73.1246 68.3709 72.9699 68.6642 72.9699 69.0269C72.9699 69.3149 73.0606 69.5549 73.2419 69.7469C73.4339 69.9282 73.6686 70.0776 73.9459 70.1949C74.2339 70.3016 74.6286 70.4242 75.1299 70.5629C75.7593 70.7336 76.2713 70.9042 76.6659 71.0749C77.0606 71.2349 77.3966 71.4802 77.6739 71.8109C77.9619 72.1416 78.1113 72.5736 78.1219 73.1069C78.1219 73.5869 77.9886 74.0189 77.7219 74.4029C77.4553 74.7869 77.0766 75.0909 76.5859 75.3149C76.1059 75.5282 75.5513 75.6349 74.9219 75.6349Z" fill="#717171"/>
<path d="M32.167 26.2333V34.3493" stroke="#717171" stroke-width="2.66667"/>
<path d="M29.5027 39.6746H34.8334V34.3493H29.5027V39.6746Z" stroke="#717171" stroke-width="2.66667" stroke-linecap="round" stroke-linejoin="round"/>
<path d="M46.3334 28.6653V29.332H47.0001L52.3334 29.3333C52.6694 29.3333 52.9481 29.5813 52.9934 29.9053L53.0001 30.0186V42C53.0001 42.336 52.7507 42.6146 52.4281 42.66L52.3134 42.6666H47.0001H46.3334V43.3333C46.3334 45.1026 45.4081 46.7573 43.8027 47.896C42.6014 48.748 41.0934 49.256 39.4827 49.324L39.0947 49.3333H29.6667C26.4427 49.3333 23.8121 46.7893 23.6721 43.6L23.6667 43.3253V26C23.6667 25.664 23.9161 25.3853 24.2387 25.34L24.3521 25.3333H45.6667C46.0027 25.3333 46.2814 25.5813 46.3267 25.9053L46.3334 26.0186V28.6653ZM31.6667 27.332V26.6653H31.0001L25.6667 26.6666H25.0001V27.3333V43.3333C25.0001 45.7266 26.8014 47.6986 29.1227 47.968L29.1321 47.9693L29.1427 47.9706L29.3734 47.9906L29.3934 47.992H29.4121L29.6467 47.9986L29.6574 48H29.6667H39.1027C40.5627 48 41.9494 47.576 43.0307 46.8093C44.1641 46.0053 44.8907 44.8746 44.9881 43.6213L44.9894 43.608L44.9907 43.5946L44.9987 43.3586L45.0001 43.3453V43.3333V27.3333V26.6666H44.3334L33.6667 26.6653H33.0001V27.332M51.6667 31.3333V30.6666H51.0001H47.0001H46.3334V31.3333V40.6666V41.3333H47.0001H51.0001H51.6667V40.6666V31.3333Z" fill="#717171"/>
<path d="M31.6667 27.332V26.6653H31.0001L25.6667 26.6666H25.0001V27.3333V43.3333C25.0001 45.7266 26.8014 47.6986 29.1227 47.968L29.1321 47.9693L29.1427 47.9706L29.3734 47.9906L29.3934 47.992H29.4121L29.6467 47.9986L29.6574 48H29.6667H39.1027C40.5627 48 41.9494 47.576 43.0307 46.8093C44.1641 46.0053 44.8907 44.8746 44.9881 43.6213L44.9894 43.608L44.9907 43.5946L44.9987 43.3586L45.0001 43.3453V43.3333V27.3333V26.6666H44.3334L33.6667 26.6653H33.0001V27.332M46.3334 28.6653V29.332H47.0001L52.3334 29.3333C52.6694 29.3333 52.9481 29.5813 52.9934 29.9053L53.0001 30.0186V42C53.0001 42.336 52.7507 42.6146 52.4281 42.66L52.3134 42.6666H47.0001H46.3334V43.3333C46.3334 45.1026 45.4081 46.7573 43.8027 47.896C42.6014 48.748 41.0934 49.256 39.4827 49.324L39.0947 49.3333H29.6667C26.4427 49.3333 23.8121 46.7893 23.6721 43.6L23.6667 43.3253V26C23.6667 25.664 23.9161 25.3853 24.2387 25.34L24.3521 25.3333H45.6667C46.0027 25.3333 46.2814 25.5813 46.3267 25.9053L46.3334 26.0186V28.6653ZM51.6667 31.3333V30.6666H51.0001H47.0001H46.3334V31.3333V40.6666V41.3333H47.0001H51.0001H51.6667V40.6666V31.3333Z" stroke="#717171" stroke-width="1.33333"/>
<mask id="mask0_74_4670" style="mask-type:alpha" maskUnits="userSpaceOnUse" x="26" y="8" width="24" height="17">
<path d="M33.5 9C33.5 9 33.5 14.1667 30.5 17C27.6613 19.6813 28.5 23.8333 28.5 23.8333" stroke="#FF0000" stroke-width="3.73333"/>
<path d="M40.8454 8.99997C40.8454 8.99997 40.8454 14.1666 37.8454 17C35.0068 19.6813 35.8454 23.8333 35.8454 23.8333" stroke="#FF0000" stroke-width="3.73333"/>
<path d="M47.8667 8.99997C47.8667 8.99997 47.8667 14.1666 44.8667 17C42.028 19.6813 42.8667 23.8333 42.8667 23.8333" stroke="#FF0000" stroke-width="3.73333"/>
</mask>
<g mask="url(#mask0_74_4670)">
<path d="M37.9666 18.0906L37.9613 18.0986L37.5013 18.8359L37.4973 18.8426C36.6133 20.3026 36.0906 21.4253 35.8439 22.6653L34.4813 22.6666C34.7226 21.2093 35.2839 19.9253 36.3466 18.1706L36.8346 17.3839L37.1026 16.9666C37.1026 16.9666 37.1026 16.9666 37.1039 16.9666C38.0399 15.5199 38.6839 14.4093 39.0893 13.3426C39.4266 12.4573 39.5919 11.6199 39.6413 10.6666L40.9773 10.6679C40.8853 12.7639 40.3319 14.2533 38.9759 16.4933L38.4866 17.2786L37.9666 18.0906ZM44.6333 18.0906L44.6279 18.0986L44.1679 18.8359L44.1639 18.8426C43.2799 20.3026 42.7586 21.4253 42.5106 22.6653L41.1479 22.6666C41.3893 21.2093 41.9506 19.9253 43.0133 18.1706L43.5013 17.3839L43.7693 16.9666C43.7693 16.9666 43.7693 16.9666 43.7706 16.9666C44.7066 15.5199 45.3506 14.4093 45.7559 13.3426C46.0933 12.4573 46.2586 11.6199 46.3079 10.6666L47.6439 10.6679C47.5519 12.7639 46.9986 14.2533 45.6426 16.4933L45.1533 17.2786L44.6333 18.0906ZM31.8759 15.8293C31.8759 15.8293 31.8759 15.8306 31.8746 15.8306L31.5533 16.3266V16.3279C30.6199 17.7573 29.9746 18.8666 29.5693 19.9413C29.2306 20.8359 29.0639 21.6906 29.0146 22.6653L27.6799 22.6666C27.7266 21.5733 27.8946 20.6573 28.2133 19.7426C28.5999 18.6373 29.2159 17.5026 30.1586 16.0279L30.4853 15.5239C30.4866 15.5239 30.4866 15.5226 30.4866 15.5226C31.7826 13.5359 32.5079 12.1906 32.8146 10.6666H34.1773C33.9026 12.3053 33.2213 13.7266 31.8759 15.8293Z" fill="#717171"/>
<path d="M37.9666 18.0906L37.9613 18.0986L37.5013 18.8359L37.4973 18.8426C36.6133 20.3026 36.0906 21.4253 35.8439 22.6653L34.4813 22.6666C34.7226 21.2093 35.2839 19.9253 36.3466 18.1706L36.8346 17.3839L37.1026 16.9666C37.1026 16.9666 37.1026 16.9666 37.1039 16.9666C38.0399 15.5199 38.6839 14.4093 39.0893 13.3426C39.4266 12.4573 39.5919 11.6199 39.6413 10.6666L40.9773 10.6679C40.8853 12.7639 40.3319 14.2533 38.9759 16.4933L38.4866 17.2786L37.9666 18.0906ZM44.6333 18.0906L44.6279 18.0986L44.1679 18.8359L44.1639 18.8426C43.2799 20.3026 42.7586 21.4253 42.5106 22.6653L41.1479 22.6666C41.3893 21.2093 41.9506 19.9253 43.0133 18.1706L43.5013 17.3839L43.7693 16.9666C43.7693 16.9666 43.7693 16.9666 43.7706 16.9666C44.7066 15.5199 45.3506 14.4093 45.7559 13.3426C46.0933 12.4573 46.2586 11.6199 46.3079 10.6666L47.6439 10.6679C47.5519 12.7639 46.9986 14.2533 45.6426 16.4933L45.1533 17.2786L44.6333 18.0906ZM31.8759 15.8293C31.8759 15.8293 31.8759 15.8306 31.8746 15.8306L31.5533 16.3266V16.3279C30.6199 17.7573 29.9746 18.8666 29.5693 19.9413C29.2306 20.8359 29.0639 21.6906 29.0146 22.6653L27.6799 22.6666C27.7266 21.5733 27.8946 20.6573 28.2133 19.7426C28.5999 18.6373 29.2159 17.5026 30.1586 16.0279L30.4853 15.5239C30.4866 15.5239 30.4866 15.5226 30.4866 15.5226C31.7826 13.5359 32.5079 12.1906 32.8146 10.6666H34.1773C33.9026 12.3053 33.2213 13.7266 31.8759 15.8293Z" stroke="#717171" stroke-width="1.33333"/>
</g>
</svg>
